<svg height="149" viewBox="-1 0 183 149" width="183" xmlns="http://www.w3.org/2000/svg"><g fill="none"><circle cx="91.36" cy="74.16" fill="#000" r="74.160119"/><g fill="#00a9e0"><path d="m30.28 24.87 15.31 67.68s36.65-.34 57.19 20.19l-21.64-72.81s-15.8-15.57-50.86-15.06z"/><path d="m28.62 36.82h-15.56l15.44 68.21s47.29-4 74.3 16.92c0 0-3.05-25-60.92-27.25z"/><path d="m11.45 46.65-12.45.71 16 67.83s58.44-5.85 88.8 14.56c0 0-9-24.52-78.16-22z"/><path d="m128.68 1.21 16.78 67.32s-32.88 16.19-42 43.77l-13.4-74.76s7.11-21.01 38.62-36.33z"/><path d="m135.47 12.17 14-6.83 16.05 68.02s-44.24 17.22-59.33 47.86c0 0-8.24-23.82 42.77-51.23z"/><path d="m156.76 15.97 11.69-4.33 12.67 68.53s-55.84 18.19-75.42 49.08c0 0-1.67-26 62.68-51.63z"/></g></g></svg>